<svg xmlns="http://www.w3.org/2000/svg" data-name="Layer 1" viewBox="0 0 168 168" id="real-estate-sale"><path fill="#4A60A1" d="M70.22278 66.50488a1 1 0 0 0 0 2h2.77734a1 1 0 0 0 0-2zM63.00012 70.50488a1 1 0 0 0 0 2H65.7774a1 1 0 1 0 0-2zM93.00012 121.501v-7.999a1 1 0 0 0-2 0v7.999a1 1 0 0 0 2 0zM42.00012 113.502v7.999a1 1 0 0 0 2 0v-7.999a1 1 0 0 0-2 0z"></path><path fill="#4A60A1" d="M21.73743 81.90814L65.84631 33.78906c1.53271-1.61041 3.147-1.52448 4.085-.72559l25.606 28.36908a6.29186 6.29186 0 0 1 1.11328-1.751l-3.66992-4.06641a.79133.79133 0 0 0 .01953-.0957v-9.0127h6v11.5069a6.39658 6.39658 0 0 1 2-.47272V45.50677a.99946.99946 0 0 0-1-1h-8a.99942.99942 0 0 0-1 1v3.58209a5.344 5.344 0 0 1-.91895-4.50983 4.7439 4.7439 0 0 1 3.60645-3.78217 11.60588 11.60588 0 0 1 10.06348 2.64551c3.68652 3.89838 5.23828 11.2002 3.61029 16.9873a41.79891 41.79891 0 0 1-2.31927 6.0791c-.01373 0-.02643-.00391-.04-.00391a4.04907 4.04907 0 1 0 1.99017.5517 42.88832 42.88832 0 0 0 2.29492-6.08594c1.832-6.51367.11517-14.46289-4.083-18.90228a13.47642 13.47642 0 0 0-12.05475-3.1983 6.6983 6.6983 0 0 0-5.02338 5.28619 7.046 7.046 0 0 0 2.874 7.59961v1.665L71.3761 31.67969a.9501.9501 0 0 0-.07721-.07721c-1.5976-1.42181-4.43842-1.77832-6.914.82129L20.26282 80.55658a1.00015 1.00015 0 1 0 1.47461 1.35156zm85.2627-11.40228a2 2 0 1 1-1.998-2.001A2.00079 2.00079 0 0 1 107.00012 70.50586zM116.57922 79.82227a3.92712 3.92712 0 0 0-1.07233-1.31549 4.73984 4.73984 0 0 0-1.497-.7959 4.40876 4.40876 0 0 0-1.5498-.20209l-.1026.00488a3.93575 3.93575 0 0 0-1.56146.43359A4.00021 4.00021 0 0 0 109.46887 79.04a4.51126 4.51126 0 0 0-.76465 1.47559 4.69721 4.69721 0 0 0-.17682 1.6582 4.49363 4.49363 0 0 0 .42578 1.63281l.77539 1.5332a2.08588 2.08588 0 0 1 .1084 1.48248 1.85139 1.85139 0 0 1-.9726 1.17871 1.81919 1.81919 0 0 1-1.501.0918 1.93949 1.93949 0 0 1-1.11621-.97168l-2.01367-3.98346a1.111 1.111 0 0 0-.69141-.60156 1.17284 1.17284 0 0 0-.419-.06049 1.10079 1.10079 0 0 0-.4599.12787 1.17154 1.17154 0 0 0-.60651.69141 1.15861 1.15861 0 0 0 .09668.92389l2.01373 3.9873a4.46024 4.46024 0 0 0 2.52338 2.12592 4.16254 4.16254 0 0 0 1.50391.20117l.11328-.00586a4.10949 4.10949 0 0 0 2.92584-1.5459 4.60425 4.60425 0 0 0 .792-1.50482 4.70174 4.70174 0 0 0 .19629-1.669 4.05816 4.05816 0 0 0-.4248-1.57318L111.02942 82.71a1.91135 1.91135 0 0 1-.12891-1.48151 1.94388 1.94388 0 0 1 .90228-1.1308 2.03136 2.03136 0 0 1 1.545-.1524 1.82837 1.82837 0 0 1 1.15131.96191l2.0127 3.98541a1.11807 1.11807 0 0 0 .669.60352 1.0768 1.0768 0 0 0 .89063-.09381 1.36029 1.36029 0 0 0 .583-.73431 1.06277 1.06277 0 0 0-.06152-.85748zM122.92493 92.38477a5.52559 5.52559 0 0 0-1.376-1.76959 5.36622 5.36622 0 0 0-3.7431-1.27142l-.1817.01172a5.70258 5.70258 0 0 0-2.11127.58881l-7.30371 3.79889a.92563.92563 0 0 0-.4873.63177 1.18557 1.18557 0 0 0 .08691.86914 1.08588 1.08588 0 0 0 .66016.55566 1.00809 1.00809 0 0 0 .84174-.043l2.95807-1.539 2.98041 5.90039-3.0224 1.57318a.91975.91975 0 0 0-.503.62109 1.20625 1.20625 0 0 0 .10059.88184 1.08548 1.08548 0 0 0 .65631.53229 1.0316 1.0316 0 0 0 .8252-.06738l7.4209-3.8623a4.91059 4.91059 0 0 0 1.65521-1.37213 5.71667 5.71667 0 0 0 .95612-1.87109 5.61587 5.61587 0 0 0 .19141-2.09369A5.84693 5.84693 0 0 0 122.92493 92.38477zm-1.76276 3.56152a3.14707 3.14707 0 0 1-.60736 1.12787 3.30025 3.30025 0 0 1-1.01562.81152l-2.3194 1.20709-2.98138-5.9024 2.42969-1.26068a2.95746 2.95746 0 0 1 1.22949-.33594l.00189.00092a3.07788 3.07788 0 0 1 1.213.17578 3.49506 3.49506 0 0 1 1.041.6123 3.31536 3.31536 0 0 1 1.1485 2.30963A3.53413 3.53413 0 0 1 121.16217 95.94629zM126.49127 100.20117a1.06193 1.06193 0 0 0-.88177.06927l-11.07812 5.7627a1.33237 1.33237 0 0 0-.58209.73541 1.11232 1.11232 0 0 0 .083.90033l3.48444 6.89746a1.06882 1.06882 0 0 0 .662.56543 1.19165 1.19165 0 0 0 1.48242-.7724 1.09385 1.09385 0 0 0-.0625-.878l-2.956-5.8476 10.04688-5.22662a1.06643 1.06643 0 0 0 .56256-.69427 1.1767 1.1767 0 0 0-.06061-.88971A1.1946 1.1946 0 0 0 126.49127 100.20117zM133.78918 119.08008a1.13444 1.13444 0 0 0 .66895.59277 1.06707 1.06707 0 0 0 .8877-.084 1.14686 1.14686 0 0 0 .59076-.69531 1.11551 1.11551 0 0 0-.06738-.89746l-3.23529-6.40332a1.04213 1.04213 0 0 0-.68854-.5733 1.46736 1.46736 0 0 0-.42969-.05273 1.12192 1.12192 0 0 0-.46478.127l-11.07623 5.76563a1.09478 1.09478 0 0 0-.584.70508 1.17166 1.17166 0 0 0 .06152.88568l3.23639 6.40436a1.13956 1.13956 0 0 0 1.58008.499 1.11571 1.11571 0 0 0 .56934-.68457 1.1303 1.1303 0 0 0-.06934-.89941l-2.71875-5.37689 3.53607-1.83789 1.961 3.87891a1.13659 1.13659 0 0 0 .67279.57709 1.05885 1.05885 0 0 0 .8858-.0683 1.13625 1.13625 0 0 0 .581-.7002 1.11574 1.11574 0 0 0-.05859-.89264l-1.9599-3.87891 3.40228-1.77246zM101.92877 128.501a5.0403 5.0403 0 0 0 3.89752-1.87012l-.99707-2.2403a3.067 3.067 0 0 1-2.90045 2.11041H95.48248a1 1 0 1 0 0 2z"></path><path fill="#4A60A1" d="M93.75214 66.05365L71.32092 41.97748a4.7362 4.7362 0 0 0-3.56451-1.46973 4.84966 4.84966 0 0 0-3.50873 1.5899L30.65051 78.40137a6.9374 6.9374 0 0 0-1.65039 4.21582v40.80365a5.08108 5.08108 0 0 0 5.07025 5.08014h54.5791a1 1 0 1 0 0-2H80.00012V103.72949a5.095 5.095 0 0 0-4.93951-5.22662H60.9386a5.09446 5.09446 0 0 0-4.93848 5.22662v13.72559a1 1 0 1 0 2 0V103.72949a3.09618 3.09618 0 0 1 2.93848-3.22662h14.122a3.09664 3.09664 0 0 1 2.93951 3.22662V126.501H57.9845c.00189-.02643.01563-.0498.01563-.07721v-4.30762a1 1 0 0 0-2 0v4.30762c0 .0274.01367.05078.01556.07721H34.07037a3.07883 3.07883 0 0 1-3.07025-3.08014V82.61719c0-.03613.00586-.07623.00775-.11334H88.04309a13.00027 13.00027 0 0 1 .29492-2H31.61292a3.63439 3.63439 0 0 1 .50488-.74408L65.71692 43.454a2.86954 2.86954 0 0 1 2.07367-.94629 2.68991 2.68991 0 0 1 2.0874.85449l23.0791 24.77051zM53 16.5a2 2 0 1 0-2-2A2.00229 2.00229 0 0 0 53 16.5zm0-3a1 1 0 1 1-1 1A1.001 1.001 0 0 1 53 13.5zM86 15.5a2 2 0 1 0-2-2A2.00229 2.00229 0 0 0 86 15.5zm0-3a1 1 0 1 1-1 1A1.001 1.001 0 0 1 86 12.5zM69 24.5a3 3 0 1 0-3-3A3.00344 3.00344 0 0 0 69 24.5zM69 20a1.5 1.5 0 1 1-1.5 1.5A1.50148 1.50148 0 0 1 69 20zM126 54.5a2 2 0 1 0-2-2A2.00229 2.00229 0 0 0 126 54.5zm0-3a1 1 0 1 1-1 1A1.001 1.001 0 0 1 126 51.5zM10 28.5a2 2 0 1 0 2 2A2.00229 2.00229 0 0 0 10 28.5zm0 3a1 1 0 1 1 1-1A1.001 1.001 0 0 1 10 31.5zM149 19.5a2 2 0 1 0-2-2A2.00229 2.00229 0 0 0 149 19.5zm0-3a1 1 0 1 1-1 1A1.001 1.001 0 0 1 149 16.5z"></path><path fill="#4A60A1" d="M152 135.5H120.86639l24.58-11.36133a4.42518 4.42518 0 0 0 2.18646-5.76862l-20.4043-46.56537a11.46994 11.46994 0 0 0-5.79877-5.41315L110.8761 62.61127c-.20221.63867-.416 1.27051-.64752 1.8916L120.754 68.27435a9.49476 9.49476 0 0 1 4.64258 4.333l20.4043 46.56549a2.42025 2.42025 0 0 1-1.19342 3.15033L116.55969 135.287a2.2421 2.2421 0 0 1-3.00781-1.1308L92.62219 87.11615a10.03583 10.03583 0 0 1-.17291-6.45209L99.1817 63.05469a2.4345 2.4345 0 0 1 2.26758-1.54883 2.36533 2.36533 0 0 1 .79791.13861l2.334.836c.23431-.626.44531-1.25781.6416-1.89459l-2.30078-.82422a4.35632 4.35632 0 0 0-1.47272-.2558 4.43736 4.43736 0 0 0-4.13568 2.83392L90.58118 79.95013a11.99953 11.99953 0 0 0 .21381 7.97955l20.92975 47.03906a4.33521 4.33521 0 0 0 .28473.53125H16a1 1 0 0 0 0 2H152a1 1 0 0 0 0-2zM11 135.5H6a1 1 0 0 0 0 2h5a1 1 0 0 0 0-2z"></path><circle cx="1" cy="136.5" r="1" fill="#4A60A1"></circle><path fill="#4A60A1" d="M162,135.5h-5a1,1,0,0,0,0,2h5a1,1,0,0,0,0-2Z"></path><circle cx="167" cy="136.5" r="1" fill="#4A60A1"></circle><path fill="#0bceb2" d="M105 141.5H63a1 1 0 0 0 0 2H81v2H71a1 1 0 0 0 0 2H98a1 1 0 0 0 0-2H87v-2h18a1 1 0 0 0 0-2zM119 141.5H109a1 1 0 0 0 0 2h10a1 1 0 0 0 0-2zM59 141.5H49a1 1 0 0 0 0 2H59a1 1 0 0 0 0-2zM63.00012 68.50488H65.7774a1 1 0 1 0 0-2H63.00012a1 1 0 0 0 0 2zM70.22278 72.50488h2.77734a1 1 0 0 0 0-2H70.22278a1 1 0 0 0 0 2z"></path><circle cx="92" cy="127.5" r="1" fill="#0bceb2"></circle><circle cx="92" cy="109.501" r="1" fill="#0bceb2"></circle><circle cx="43" cy="109.501" r="1" fill="#0bceb2"></circle><polygon fill="#0bceb2" points="5.583 71.511 7.07 69.556 6.131 69.024 5.177 71.214 5.145 71.214 4.175 69.039 3.22 69.587 4.691 71.496 4.691 71.527 2.391 71.23 2.391 72.294 4.707 71.997 4.707 72.028 3.22 73.936 4.112 74.5 5.13 72.294 5.16 72.294 6.099 74.484 7.085 73.921 5.583 72.043 5.583 72.012 7.945 72.294 7.945 71.23 5.583 71.542 5.583 71.511"></polygon><polygon fill="#0bceb2" points="32.281 3.269 33.137 2.143 32.597 1.837 32.047 3.098 32.029 3.098 31.471 1.845 30.92 2.161 31.768 3.26 31.768 3.278 30.443 3.107 30.443 3.72 31.777 3.549 31.777 3.567 30.92 4.666 31.434 4.99 32.02 3.72 32.038 3.72 32.578 4.981 33.146 4.657 32.281 3.575 32.281 3.557 33.641 3.72 33.641 3.107 32.281 3.287 32.281 3.269"></polygon><polygon fill="#0bceb2" points="125.683 4.446 127.142 2.528 126.221 2.006 125.285 4.154 125.253 4.154 124.302 2.021 123.365 2.559 124.808 4.431 124.808 4.462 122.552 4.17 122.552 5.213 124.823 4.922 124.823 4.953 123.365 6.825 124.24 7.378 125.238 5.213 125.268 5.213 126.189 7.362 127.156 6.81 125.683 4.968 125.683 4.937 128 5.213 128 4.17 125.683 4.477 125.683 4.446"></polygon><polygon fill="#0bceb2" points="159.442 55.748 159.442 54.848 157.443 55.112 157.443 55.086 158.701 53.431 157.907 52.981 157.099 54.834 157.073 54.834 156.252 52.994 155.444 53.458 156.689 55.073 156.689 55.099 154.742 54.848 154.742 55.748 156.702 55.496 156.702 55.523 155.444 57.138 156.198 57.615 157.06 55.748 157.085 55.748 157.88 57.601 158.714 57.125 157.443 55.536 157.443 55.509 159.442 55.748"></polygon></svg>